<svg id="ICON" height="512" viewBox="0 0 32 32" width="512" xmlns="http://www.w3.org/2000/svg"><path d="m12.854 24c-1.654 0-3 1.346-3 3s1.346 3 3 3 3-1.346 3-3-1.346-3-3-3zm0 4c-.552 0-1-.449-1-1s.448-1 1-1 1 .449 1 1-.448 1-1 1zm10-4c-1.654 0-3 1.346-3 3s1.346 3 3 3 3-1.346 3-3-1.346-3-3-3zm0 4c-.552 0-1-.449-1-1s.448-1 1-1 1 .449 1 1-.448 1-1 1zm6.706-19.782c-.572-.774-1.452-1.218-2.414-1.218h-19.126l-.999-3.542c-.241-.859-1.033-1.458-1.926-1.458h-2.241c-.553 0-1 .448-1 1s.447 1 1 1h2.242s1.201 4.26 1.201 4.26l2.097 9.089c.632 2.738 3.036 4.651 5.847 4.651h7.92c2.65 0 4.956-1.702 5.735-4.236l2.117-6.881c.283-.919.118-1.891-.453-2.665zm-1.459 2.076-2.117 6.882c-.52 1.689-2.056 2.824-3.823 2.824h-7.92c-1.874 0-3.477-1.275-3.897-3.1l-1.823-7.9h18.625c.321 0 .614.148.805.406.19.258.245.581.15.888z"/></svg>