<svg id="Layer_2" enable-background="new 0 0 32 32" height="512" viewBox="0 0 32 32" width="512" xmlns="http://www.w3.org/2000/svg"><path d="m30.57464 28.52158-7.67906-7.67906c1.7022-2.15391 2.63338-4.79425 2.63338-7.58135 0-3.27667-1.27607-6.35721-3.5938-8.67399-4.78291-4.78291-12.56506-4.78291-17.34797 0s-4.78291 12.56506 0 17.34797c2.31678 2.31773 5.39826 3.5938 8.67446 3.5938 2.78668 0 5.42697-.93118 7.58088-2.63338l7.67906 7.67906c.28356.28358.65504.42537 1.02652.42537s.74296-.14179 1.02653-.42536c.56715-.56714.56715-1.48591 0-2.05306zm-23.9344-8.63948c-3.65051-3.65051-3.65051-9.59087 0-13.24186 1.8262-1.82526 4.22333-2.73741 6.6214-2.73741 2.39713 0 4.7952.91263 6.62045 2.73741 1.76854 1.76854 2.74308 4.1203 2.74308 6.62093 0 2.5011-.97454 4.85238-2.74308 6.62093s-4.11935 2.74308-6.62045 2.74308-4.85286-.97454-6.6214-2.74308z"/></svg>